<svg width="38" height="17" viewBox="0 0 38 17" fill="none" xmlns="http://www.w3.org/2000/svg">
  <path style="fill:#f1f1f1"
        d="m 37.80078,0 c -5.99755,0.02548941 -9.14221,3.4063926 -11.68359,6.1308593 -2.282,2.4391301 -3.89258,4.2128907 -7.51758,4.2128907 -3.558,0 -5.23753,-1.7737606 -7.51953,-4.2128906 C 8.62884,3.5030346 5.59207,0.29253498 0,0.04296875 V 6.6484376 c 0.001,-6e-7 0.003,0 0.004,0 3.558,-1e-7 5.23754,1.773781 7.51954,4.2128904 2.551,2.7348 5.70604,6.134766 11.74804,6.134766 6.042,0 9.19705,-3.399966 11.74805,-6.134766 2.10358,-2.2485126 3.75805,-3.8659039 6.78115,-4.1152343 z"/>
</svg>
